<svg width="25" height="25" viewBox="0 0 25 25" fill="none" xmlns="http://www.w3.org/2000/svg">
<path d="M16.3021 16.875L15.6771 16.0416C17.8125 14.427 19.1667 10.9895 19.2187 7.13538H7.23957C7.29166 9.42704 7.76041 11.5625 8.69791 13.3333L7.76041 13.802C6.71874 11.8229 6.19791 9.37496 6.19791 6.77079V6.04163H20.2604V6.77079C20.2604 11.1458 18.75 15 16.3021 16.875Z" fill="#5E5E5E"/>
<path d="M19.375 14.5312C19.2187 14.5312 19.1146 14.5312 18.9583 14.4791C18.5937 14.4271 18.2292 14.1146 17.9687 13.75L18.8542 13.2291C18.9583 13.3854 19.1146 13.4896 19.1667 13.4896C19.8958 13.6979 21.1458 12.4479 21.6146 10.8333C21.9792 9.47915 21.6146 8.3854 20.6771 8.17706C20.4687 8.12498 20.1042 8.0729 19.8437 8.22915L19.4271 7.29165C19.8958 7.08331 20.4167 7.08331 20.9375 7.18748C22.1875 7.55206 23.2292 8.90623 22.6042 11.1458C22.1354 12.8125 20.7292 14.5312 19.375 14.5312ZM14.6354 2.39581H15.6771V5.20831H14.6354V2.39581ZM12.7083 0.520813H13.75V5.20831H12.7083V0.520813ZM10.7812 2.39581H11.8229V5.20831H10.7812V2.39581ZM15.8854 25C15.5729 25 15.3125 24.8958 15.0521 24.7396C14.5833 24.4791 14.0625 24.1146 13.5417 23.75C12.2917 22.8125 10.8333 21.7708 9.68749 21.4062C8.17707 20.8333 6.61457 20.7291 5.20832 20.6771C4.53124 20.625 3.90624 20.625 3.38541 20.5208C2.91666 20.4687 2.49999 20.2083 2.29166 19.7916C2.03124 19.2708 2.03124 18.6458 2.29166 18.0208C3.02082 16.3541 5.10416 14.1666 7.86457 13.4375C9.27082 13.0729 10.6771 13.0729 12.0833 13.4375C12.1875 13.4896 19.0625 15.6771 17.4479 23.6458C17.3958 24.375 16.6667 25 15.8854 25ZM10.0521 14.1146C9.42707 14.1146 8.80207 14.2187 8.22916 14.375C5.88541 15 4.01041 16.875 3.33332 18.3854C3.12499 18.6979 3.12499 19.0104 3.22916 19.2187C3.28124 19.3229 3.43749 19.4271 3.59374 19.4271C4.06249 19.5312 4.63541 19.5312 5.31249 19.5833C6.71874 19.6875 8.43749 19.7916 10.0521 20.4166C11.3021 20.8333 12.8125 21.9271 14.1146 22.9166C14.6354 23.2812 15.1042 23.6458 15.5729 23.9062C15.6771 23.9583 15.7292 24.0104 15.8333 24.0104C16.0937 24.0104 16.4062 23.75 16.5104 23.3854C17.9167 16.3021 12.1354 14.4791 11.875 14.375C11.3021 14.2187 10.6771 14.1146 10.0521 14.1146Z" fill="#5E5E5E"/>
<path d="M6.66145 14.6187L7.34009 20.0453L6.30676 20.1744L5.62811 14.7474L6.66145 14.6187ZM16.6364 18.4L17.2818 19.2177L12.8651 22.701L12.2198 21.8833L16.6364 18.4Z" fill="#5E5E5E"/>
</svg>
