<svg width="22" height="22" viewBox="0 0 22 22" fill="none" xmlns="http://www.w3.org/2000/svg">
<path d="M19.1033 4.22586C18.6351 3.75745 18.0792 3.38587 17.4674 3.13235C16.8556 2.87884 16.1998 2.74835 15.5375 2.74835C14.8752 2.74835 14.2194 2.87884 13.6076 3.13235C12.9957 3.38587 12.4399 3.75745 11.9717 4.22586L11 5.19753L10.0283 4.22586C9.08261 3.28014 7.79994 2.74884 6.4625 2.74884C5.12505 2.74884 3.84238 3.28014 2.89666 4.22586C1.95095 5.17158 1.41965 6.45424 1.41965 7.79169C1.41965 9.12914 1.95095 10.4118 2.89666 11.3575L3.86833 12.3292L11 19.4609L18.1317 12.3292L19.1033 11.3575C19.5717 10.8893 19.9433 10.3334 20.1968 9.7216C20.4503 9.10976 20.5808 8.45397 20.5808 7.79169C20.5808 7.12941 20.4503 6.47362 20.1968 5.86178C19.9433 5.24995 19.5717 4.69405 19.1033 4.22586V4.22586Z" stroke="#5E5E5E" stroke-linecap="round" stroke-linejoin="round"/>
</svg>
