<svg width="23" height="19" viewBox="0 0 23 19" fill="none" xmlns="http://www.w3.org/2000/svg">
<path d="M22.6974 10.6875C22.6171 10.6875 22.5401 10.7188 22.4834 10.7745C22.4266 10.8301 22.3947 10.9056 22.3947 10.9844V18.1094C22.3947 18.1881 22.3629 18.2636 22.3061 18.3193C22.2493 18.375 22.1724 18.4062 22.0921 18.4062H0.907895C0.827632 18.4062 0.750656 18.375 0.693902 18.3193C0.637147 18.2636 0.605263 18.1881 0.605263 18.1094V10.9844C0.605263 10.9056 0.573379 10.8301 0.516624 10.7745C0.45987 10.7188 0.382894 10.6875 0.302632 10.6875C0.222369 10.6875 0.145393 10.7188 0.0886387 10.7745C0.0318843 10.8301 0 10.9056 0 10.9844L0 18.1094C0 18.6004 0.407342 19 0.907895 19H22.0921C22.5927 19 23 18.6004 23 18.1094V10.9844C23 10.9056 22.9681 10.8301 22.9114 10.7745C22.8546 10.7188 22.7776 10.6875 22.6974 10.6875ZM15.4342 2.96875C15.5145 2.96875 15.5914 2.93747 15.6482 2.8818C15.705 2.82612 15.7368 2.75061 15.7368 2.67188V0.890625C15.7368 0.399594 15.3295 0 14.8289 0H8.17105C7.6705 0 7.26316 0.399594 7.26316 0.890625V2.67188C7.26316 2.75061 7.29504 2.82612 7.3518 2.8818C7.40855 2.93747 7.48553 2.96875 7.56579 2.96875C7.64605 2.96875 7.72303 2.93747 7.77978 2.8818C7.83654 2.82612 7.86842 2.75061 7.86842 2.67188V0.890625C7.86842 0.811889 7.90031 0.736378 7.95706 0.680703C8.01381 0.625028 8.09079 0.59375 8.17105 0.59375H14.8289C14.9092 0.59375 14.9862 0.625028 15.0429 0.680703C15.0997 0.736378 15.1316 0.811889 15.1316 0.890625V2.67188C15.1316 2.75061 15.1635 2.82612 15.2202 2.8818C15.277 2.93747 15.3539 2.96875 15.4342 2.96875Z" fill="#5E5E5E"/>
<path d="M22.0921 4.15625H0.907895C0.407342 4.15625 0 4.55584 0 5.04688V7.99069C0 9.64013 5.72337 11.8501 11.5757 11.8501C17.3517 11.8501 23 9.64013 23 7.99069V5.04688C23 4.55584 22.5927 4.15625 22.0921 4.15625ZM22.3947 7.99069C22.3947 9.03806 17.276 11.2563 11.5757 11.2563C5.79539 11.2563 0.605263 9.03866 0.605263 7.99069V5.04688C0.605263 4.96814 0.637147 4.89263 0.693902 4.83695C0.750656 4.78128 0.827632 4.75 0.907895 4.75H22.0921C22.1724 4.75 22.2493 4.78128 22.3061 4.83695C22.3629 4.89263 22.3947 4.96814 22.3947 5.04688V7.99069ZM11.5757 13.6562C12.1464 13.6562 12.7396 13.6331 13.3394 13.5874C13.379 13.5843 13.4176 13.5736 13.453 13.5559C13.4885 13.5382 13.52 13.5138 13.5458 13.4841C13.5716 13.4544 13.5911 13.4201 13.6034 13.383C13.6157 13.3459 13.6204 13.3068 13.6172 13.2679C13.6149 13.2288 13.6045 13.1905 13.5867 13.1554C13.5689 13.1202 13.544 13.089 13.5136 13.0636C13.4832 13.0381 13.4479 13.0189 13.4097 13.0072C13.3715 12.9955 13.3314 12.9915 13.2916 12.9954C12.0726 13.0886 10.9256 13.0845 9.70903 12.9835C9.63047 12.9794 9.55336 13.0054 9.49404 13.0561C9.43472 13.1068 9.39784 13.1781 9.39123 13.255C9.38462 13.3319 9.40879 13.4083 9.45862 13.468C9.50846 13.5278 9.58003 13.5661 9.65818 13.5749C10.3094 13.6289 10.9547 13.6562 11.5757 13.6562Z" fill="#5E5E5E"/>
</svg>
