<svg width="17" height="17" viewBox="0 0 17 17" fill="none" xmlns="http://www.w3.org/2000/svg">
<path d="M15.5833 4.60416H11.3333" stroke="black" stroke-width="1.0625" stroke-miterlimit="10" stroke-linecap="round" stroke-linejoin="round"/>
<path d="M4.25002 4.60416H1.41669" stroke="black" stroke-width="1.0625" stroke-miterlimit="10" stroke-linecap="round" stroke-linejoin="round"/>
<path d="M7.08335 7.08333C8.45256 7.08333 9.56252 5.97337 9.56252 4.60417C9.56252 3.23496 8.45256 2.125 7.08335 2.125C5.71415 2.125 4.60419 3.23496 4.60419 4.60417C4.60419 5.97337 5.71415 7.08333 7.08335 7.08333Z" stroke="black" stroke-width="1.0625" stroke-miterlimit="10" stroke-linecap="round" stroke-linejoin="round"/>
<path d="M15.5833 12.3958H12.75" stroke="black" stroke-width="1.0625" stroke-miterlimit="10" stroke-linecap="round" stroke-linejoin="round"/>
<path d="M5.66669 12.3958H1.41669" stroke="black" stroke-width="1.0625" stroke-miterlimit="10" stroke-linecap="round" stroke-linejoin="round"/>
<path d="M9.91667 14.875C11.2859 14.875 12.3958 13.765 12.3958 12.3958C12.3958 11.0266 11.2859 9.91666 9.91667 9.91666C8.54746 9.91666 7.4375 11.0266 7.4375 12.3958C7.4375 13.765 8.54746 14.875 9.91667 14.875Z" stroke="black" stroke-width="1.0625" stroke-miterlimit="10" stroke-linecap="round" stroke-linejoin="round"/>
</svg>
